<svg xmlns="http://www.w3.org/2000/svg" width="512" height="512"><rect id="backgroundrect" width="100%" height="100%" x="0" y="0" fill="none" stroke="none"/>

 <g style="">
  <title>background</title>
  <rect fill="none" id="canvas_background" height="402" width="582" y="-1" x="-1"/>
 </g>
 <g style="" class="currentLayer">
  <title>Layer 1</title>
  <g id="svg_1" class="selected">
   <g id="svg_2">
    <path id="svg_3" fill="#767676" d="m480.656,355.616l-69.664,-147.232c-27.808,-58.624 -55.872,-117.888 -74.304,-157.024c-14.592,-31.2 -46.24,-51.36 -80.672,-51.36c-34.208,0.032 -65.76,20 -80.416,50.944c-20.448,43.552 -52.672,111.488 -83.296,176.032c-23.168,48.896 -45.44,95.808 -60.896,128.576c-6.88,14.464 -10.528,30.56 -10.528,46.528c0,60.608 49.312,109.92 109.92,109.92c39.04,0 85.536,-27.168 125.216,-65.824c39.68,38.656 86.176,65.824 125.216,65.824c60.608,0 109.92,-49.312 109.888,-109.952c-0.032,-16.032 -3.648,-32.128 -10.464,-46.432zm-281.696,-78.752c0,-31.456 25.6,-57.024 57.056,-57.024s57.056,25.568 57.056,57.024c0,38.112 -24.384,83.584 -57.056,121.824c-32.672,-38.272 -57.056,-83.744 -57.056,-121.824zm182.272,203.136c-28.704,0 -68.128,-23.776 -102.944,-57.568c38.816,-45.248 66.784,-100.032 66.784,-145.568c0,-49.088 -39.968,-89.024 -89.056,-89.024c-49.12,0 -89.056,39.936 -89.056,89.024c0,45.536 27.968,100.32 66.784,145.568c-34.816,33.792 -74.208,57.568 -102.944,57.568c-42.976,0 -77.92,-34.944 -77.92,-77.888c0,-11.232 2.56,-22.592 7.424,-32.832c15.488,-32.832 37.728,-79.712 60.896,-128.576c30.656,-64.576 62.912,-132.576 83.328,-176.096c9.376,-19.808 29.6,-32.576 51.488,-32.608c22.048,0 42.336,12.928 51.744,32.96c18.464,39.2 46.56,98.496 74.336,157.152l69.664,147.2c4.896,10.24 7.36,21.312 7.392,32.768c0,42.976 -34.944,77.92 -77.92,77.92z"/>
   </g>
  </g>
  <g id="svg_4"/>
  <g id="svg_5"/>
  <g id="svg_6"/>
  <g id="svg_7"/>
  <g id="svg_8"/>
  <g id="svg_9"/>
  <g id="svg_10"/>
  <g id="svg_11"/>
  <g id="svg_12"/>
  <g id="svg_13"/>
  <g id="svg_14"/>
  <g id="svg_15"/>
  <g id="svg_16"/>
  <g id="svg_17"/>
  <g id="svg_18"/>
  <rect id="svg_45" height="0" width="1" y="121.5" x="160.5" stroke-width="1.5" stroke="#000" fill="#fff"/>
  <rect stroke="null" id="svg_48" height="249.00001525878906" width="189" y="171.49998474121094" x="160.5" stroke-width="1.5" fill="#fff" class=""/>
  <g stroke="null" id="svg_42">
   <g stroke="null" id="svg_23">
    <g stroke="null" id="svg_25" stroke-width="0">
     <path stroke="null" id="svg_26" fill="#fc5b62" d="m330.91429877701194,225.96218196606208 l-25.00321284528863,12.53444720711544 c4.808963022048045,-30.673361330901326 6.855677531160266,-76.50470448723334 -8.945480766780113,-97.6291329309134 c-19.585784776193506,-26.182980222707066 -35.037010386132565,-27.710102544196452 -65.0685470429626,-27.710102544196452 c0.4354572815240357,11.345739905004537 -1.7411762666036028,17.455538339973234 -1.7411762666036028,17.455538339973234 s-8.269118332508897,-3.054899217484347 -15.667974961462264,-4.3640482286196995 c4.194622239568108,11.775140780656935 1.5002711138564224,38.454288478584296 -7.424318149162418,43.76026942071588 c-8.92458926301884,5.305326367626019 -26.423835101055193,16.404291684031545 -26.423835101055193,16.404291684031545 l10.3106099656808,16.69623191351473 c0,0 20.76354330073527,-12.853224991326897 20.92610531437768,-12.929810208478315 c10.082109143291875,-4.788212508227555 9.46646264182686,-1.4184629535651552 22.850082238892423,1.1998350687055512 c13.795573936858165,2.6988106864555306 28.290360390226436,-5.999829918033324 28.290360390226436,-5.999829918033324 s-39.17156955238701,32.72872527838383 -39.17156955238701,72.00319561244443 s31.51026340743265,55.444424345098916 42.87132429660996,70.0394720957414 c13.9274515543512,17.891484960681304 10.880556302668031,45.38361419452372 -15.233823398923308,45.38361419452372 c-14.494133593875734,-1.1671063434271673 -20.728941747630667,-10.975250734853233 -21.063858667303577,-21.266471111388242 c0.2069564591351114,-2.3950881158721287 0.8617745301525143,-4.754174633938035 1.966412791529828,-6.969254760779053 c2.416232981889739,-4.845160490211942 7.298969126594779,-7.852275768789849 12.686365659033072,-7.815619596478058 l0.0600630733136601,-13.091490111353533 c-0.04308872650762572,0 -0.08487173403017186,-0.0006545745055676768 -0.12861332003033737,-0.0006545745055676768 c-8.421887453763206,0 -16.144562391016304,3.8063507498760396 -21.22903211891614,10.222490053450406 c-9.132198581646492,10.717348379659569 -12.378868838046834,34.232282917672784 1.5942828807821514,48.08373402999039 c7.618217418446734,7.552480645239853 18.05744070415787,12.873516800999496 31.119853430893862,12.873516800999496 c32.64297462698917,0 52.22875940318268,-26.182980222707066 52.22875940318268,-52.36596044541413 c0,-21.034751736417288 -8.419276015793049,-46.29216360825166 -8.348114331106212,-68.9882254397997 l30.54533707745885,15.313115983250226 c0,0 10.445751880636536,-8.624019110854139 10.445751880636536,-31.419576267248477 s-10.445751880636536,-31.419576267248477 -10.445751880636536,-31.419576267248477 zm-100.54036185112666,-53.67510945654948 c-3.605742977297224,0 -6.528594925397835,-2.9305300614264884 -6.528594925397835,-6.5457450556767665 s2.922851948100611,-6.5457450556767665 6.528594925397835,-6.5457450556767665 c3.605742977297224,0 6.528594925397835,2.9305300614264884 6.528594925397835,6.5457450556767665 s-2.922851948100611,6.5457450556767665 -6.528594925397835,6.5457450556767665 z" stroke-width="0"/>
    </g>
   </g>
   <g stroke="null" id="svg_27"/>
   <g stroke="null" id="svg_28"/>
   <g stroke="null" id="svg_29"/>
   <g stroke="null" id="svg_30"/>
   <g stroke="null" id="svg_31"/>
   <g stroke="null" id="svg_32"/>
   <g stroke="null" id="svg_33"/>
   <g stroke="null" id="svg_34"/>
   <g stroke="null" id="svg_35"/>
   <g stroke="null" id="svg_36"/>
   <g stroke="null" id="svg_37"/>
   <g stroke="null" id="svg_38"/>
   <g stroke="null" id="svg_39"/>
   <g stroke="null" id="svg_40"/>
   <g stroke="null" id="svg_41"/>
  </g>
  <rect id="svg_49" height="24" width="23" y="354.5" x="317.5" stroke-width="1.5" fill="#fff"/>
 <polyline fill="none" stroke="#222222" stroke-width="2" stroke-linejoin="round" stroke-dashoffset="" fill-rule="nonzero" marker-start="" marker-mid="" marker-end="" id="svg_19" points="155.74421482194754,389.0775436139748 155.74421482194754,388.3972715183712 " style="color: rgb(0, 0, 0);"/><polyline fill="none" stroke="#ffffff" stroke-width="2" stroke-linejoin="round" stroke-dashoffset="" fill-rule="nonzero" marker-start="" marker-mid="" marker-end="" id="svg_20" points="150.98231015272253,387.7169994227676 150.98231015272253,387.7169994227676 150.98231015272253,388.3972715183712 150.98231015272253,389.0775436139747 150.98231015272253,390.43808780518185 150.98231015272253,391.11835990078544 150.98231015272253,390.43808780518185 150.98231015272253,389.0775436139747 150.30203805711895,386.35645523156046 150.30203805711895,383.6353668491461 149.62176596151537,380.2340063711282 149.62176596151537,377.51291798871387 149.62176596151537,375.47210170190317 149.62176596151537,374.7918296062996 149.62176596151537,374.7918296062996 151.66258224832612,374.7918296062996 153.02312643953323,375.47210170190317 155.06394272634398,376.8326458931103 157.10475901315473,379.5537342755246 159.14557529996543,381.59455056233537 159.825847395569,383.6353668491461 160.5061194911726,385.6761831359569 160.5061194911726,387.03672732716404 160.5061194911726,387.7169994227676 160.5061194911726,388.3972715183712 159.825847395569,389.0775436139747 158.46530320436185,389.75781570957827 157.78503110875826,390.43808780518185 157.10475901315473,390.43808780518185 157.10475901315473,390.43808780518185 156.42448691755115,390.43808780518185 156.42448691755115,390.43808780518185 155.74421482194757,389.75781570957827 155.06394272634398,388.3972715183712 155.06394272634398,387.03672732716404 154.3836706307404,386.35645523156046 154.3836706307404,385.6761831359569 154.3836706307404,385.6761831359569 155.06394272634398,386.35645523156046 155.06394272634398,386.35645523156046 155.06394272634398,387.03672732716404 155.06394272634398,387.03672732716404 154.3836706307404,387.03672732716404 154.3836706307404,386.35645523156046 153.7033985351368,386.35645523156046 153.02312643953323,386.35645523156046 153.02312643953323,386.35645523156046 153.02312643953323,387.03672732716404 156.42448691755115,393.8394482831998 160.5061194911726,399.2816250480284 163.22720787358693,402.6829855260462 165.26802416039763,405.40407390846053 165.9482962560012,406.7646180996677 166.6285683516048,406.7646180996677 166.6285683516048,406.7646180996677 164.58775206479405,402.6829855260462 161.86666368237977,396.56053666561405 158.46530320436185,389.0775436139747 157.10475901315473,385.6761831359569 155.74421482194757,382.95509475354254 155.74421482194757,381.59455056233537 155.74421482194757,381.59455056233537 155.74421482194757,382.27482265793896 155.74421482194757,383.6353668491461 155.74421482194757,384.9959110403533 155.74421482194757,386.35645523156046 155.74421482194757,387.03672732716404 155.74421482194757,387.7169994227676 155.74421482194757,388.3972715183712 155.74421482194757,388.3972715183712 155.74421482194757,388.3972715183712 155.74421482194757,388.3972715183712 155.74421482194757,389.0775436139747 155.74421482194757,389.0775436139747 155.74421482194757,389.0775436139747 155.74421482194757,389.0775436139747 155.74421482194757,388.3972715183712 155.74421482194757,387.7169994227676 155.74421482194757,387.7169994227676 156.42448691755115,389.0775436139747 156.42448691755115,390.43808780518185 156.42448691755115,391.798631996389 156.42448691755115,392.4789040919926 156.42448691755115,392.4789040919926 156.42448691755115,391.798631996389 156.42448691755115,391.798631996389 156.42448691755115,391.11835990078544 156.42448691755115,391.11835990078544 156.42448691755115,391.798631996389 156.42448691755115,393.1591761875962 156.42448691755115,394.51972037880336 156.42448691755115,395.1999924744069 156.42448691755115,395.1999924744069 156.42448691755115,395.1999924744069 156.42448691755115,394.51972037880336 156.42448691755115,393.8394482831998 156.42448691755115,393.8394482831998 " style="color: rgb(0, 0, 0);"/><polyline fill="none" stroke="#ffffff" stroke-width="6" stroke-linejoin="round" stroke-dashoffset="" fill-rule="nonzero" marker-start="" marker-mid="" marker-end="" id="svg_21" points="110.84625651211141,421.7306042029464 110.84625651211141,421.7306042029464 112.88707279892216,421.7306042029464 114.92788908573291,421.05033210734285 115.6081611813365,421.7306042029464 116.28843327694003,421.7306042029464 116.96870537254361,421.7306042029464 116.96870537254361,421.7306042029464 117.6489774681472,421.7306042029464 119.00952165935436,422.41087629854997 121.73061004176863,423.77142048975713 125.81224261539016,425.8122367765679 129.8938751890116,427.85305306337864 135.3360519538402,430.574141445793 142.81904500547958,433.97550192381084 146.22040548349744,435.336046115018 150.30203805711895,436.6965903062251 153.7033985351368,438.0571344974323 156.42448691755115,439.41767868863946 157.78503110875826,440.09795078424304 158.46530320436185,440.7782228798466 159.14557529996543,440.7782228798466 159.14557529996543,441.4584949754502 159.825847395569,441.4584949754502 " style="color: rgb(0, 0, 0);"/><polyline fill="none" stroke="#ffffff" stroke-width="6" stroke-linejoin="round" stroke-dashoffset="" fill-rule="nonzero" marker-start="" marker-mid="" marker-end="" id="svg_22" points="214.92788713945885,429.8938693501894 214.92788713945885,429.8938693501894 215.60815923506243,429.8938693501894 215.60815923506243,429.2135972545858 216.9687034262696,429.2135972545858 217.64897552187318,428.5333251589822 218.32924761747668,427.85305306337864 219.00951971308027,427.85305306337864 220.37006390428743,427.17278096777505 220.37006390428743,426.49250887217147 221.7306080954946,426.49250887217147 221.7306080954946,426.49250887217147 223.09115228670177,425.1319646809643 223.77142438230536,425.1319646809643 224.45169647790888,424.4516925853607 225.13196857351247,424.4516925853607 225.13196857351247,423.77142048975713 225.81224066911605,423.77142048975713 226.49251276471963,423.09114839415355 227.17278486032322,423.09114839415355 227.17278486032322,422.41087629854997 227.8530569559268,422.41087629854997 227.8530569559268,422.41087629854997 228.5333290515304,421.7306042029464 228.5333290515304,421.7306042029464 228.5333290515304,421.7306042029464 228.5333290515304,421.7306042029464 228.5333290515304,421.05033210734285 228.5333290515304,421.05033210734285 229.21360114713397,421.05033210734285 229.21360114713397,421.05033210734285 229.21360114713397,420.37006001173927 229.21360114713397,420.37006001173927 229.8938732427375,420.37006001173927 229.8938732427375,420.37006001173927 230.57414533834108,420.37006001173927 230.57414533834108,419.6897879161357 230.57414533834108,419.6897879161357 230.57414533834108,419.6897879161357 231.25441743394467,419.6897879161357 231.25441743394467,419.6897879161357 231.93468952954825,419.0095158205321 231.93468952954825,419.0095158205321 232.61496162515184,419.0095158205321 233.29523372075542,418.3292437249286 233.29523372075542,418.3292437249286 233.97550581635898,418.3292437249286 234.65577791196256,417.648971629325 235.33605000756614,417.648971629325 236.0163221031697,416.9686995337214 236.69659419877328,416.9686995337214 237.37686629437687,416.9686995337214 238.05713838998045,416.2884274381178 238.05713838998045,416.2884274381178 239.41768258118762,415.60815534251424 239.41768258118762,414.92788324691065 240.0979546767912,414.92788324691065 240.0979546767912,414.92788324691065 240.7782267723948,414.92788324691065 240.7782267723948,414.92788324691065 240.7782267723948,414.92788324691065 240.0979546767912,414.92788324691065 239.41768258118762,414.92788324691065 237.37686629437687,416.2884274381178 236.0163221031697,416.9686995337214 234.65577791196256,417.648971629325 233.29523372075542,417.648971629325 231.93468952954825,418.3292437249286 231.25441743394467,419.0095158205321 230.57414533834108,419.0095158205321 229.8938732427375,419.0095158205321 229.8938732427375,419.0095158205321 229.21360114713397,419.0095158205321 228.5333290515304,419.0095158205321 227.8530569559268,419.0095158205321 227.17278486032322,419.6897879161357 226.49251276471963,420.37006001173927 226.49251276471963,420.37006001173927 225.81224066911605,420.37006001173927 225.81224066911605,420.37006001173927 225.13196857351247,421.05033210734285 225.13196857351247,421.05033210734285 225.81224066911605,421.05033210734285 225.81224066911605,421.05033210734285 225.81224066911605,421.05033210734285 227.17278486032322,421.05033210734285 227.8530569559268,421.05033210734285 229.21360114713397,421.05033210734285 230.57414533834108,420.37006001173927 231.25441743394467,420.37006001173927 231.93468952954825,419.6897879161357 232.61496162515184,419.6897879161357 233.29523372075542,419.6897879161357 233.97550581635898,419.0095158205321 234.65577791196256,419.0095158205321 235.33605000756614,418.3292437249286 236.0163221031697,418.3292437249286 236.69659419877328,418.3292437249286 237.37686629437687,417.648971629325 238.05713838998045,416.9686995337214 238.73741048558404,416.9686995337214 238.73741048558404,416.9686995337214 238.05713838998045,416.9686995337214 238.05713838998045,416.9686995337214 237.37686629437687,417.648971629325 236.69659419877328,417.648971629325 236.0163221031697,418.3292437249286 234.65577791196256,418.3292437249286 233.97550581635898,419.0095158205321 233.29523372075542,419.6897879161357 232.61496162515184,419.6897879161357 231.25441743394467,420.37006001173927 230.57414533834108,421.05033210734285 230.57414533834108,421.05033210734285 229.8938732427375,421.05033210734285 229.21360114713397,421.05033210734285 229.21360114713397,421.7306042029464 228.5333290515304,421.7306042029464 228.5333290515304,421.7306042029464 228.5333290515304,421.7306042029464 228.5333290515304,421.7306042029464 227.8530569559268,422.41087629854997 227.8530569559268,422.41087629854997 227.17278486032322,422.41087629854997 227.17278486032322,423.09114839415355 227.17278486032322,423.09114839415355 227.17278486032322,423.09114839415355 227.17278486032322,423.09114839415355 227.8530569559268,423.09114839415355 228.5333290515304,422.41087629854997 229.21360114713397,422.41087629854997 230.57414533834108,421.7306042029464 231.25441743394467,421.05033210734285 231.93468952954825,421.05033210734285 232.61496162515184,420.37006001173927 233.29523372075542,420.37006001173927 233.97550581635898,419.6897879161357 234.65577791196256,419.6897879161357 235.33605000756614,419.0095158205321 236.0163221031697,419.0095158205321 236.0163221031697,418.3292437249286 237.37686629437687,418.3292437249286 237.37686629437687,418.3292437249286 238.05713838998045,417.648971629325 238.73741048558404,417.648971629325 239.41768258118762,416.9686995337214 239.41768258118762,416.9686995337214 240.0979546767912,416.9686995337214 240.7782267723948,416.9686995337214 240.7782267723948,416.2884274381178 241.45849886799837,416.2884274381178 241.45849886799837,416.2884274381178 241.45849886799837,416.2884274381178 241.45849886799837,416.2884274381178 240.0979546767912,416.2884274381178 238.05713838998045,416.9686995337214 236.69659419877328,418.3292437249286 234.65577791196256,419.0095158205321 233.97550581635898,419.6897879161357 233.29523372075542,419.6897879161357 233.29523372075542,419.6897879161357 231.93468952954825,420.37006001173927 231.25441743394467,421.05033210734285 229.8938732427375,421.05033210734285 229.21360114713397,421.7306042029464 227.8530569559268,422.41087629854997 227.8530569559268,423.09114839415355 227.17278486032322,423.09114839415355 227.17278486032322,423.09114839415355 227.17278486032322,423.09114839415355 227.17278486032322,423.09114839415355 226.49251276471963,423.09114839415355 226.49251276471963,423.77142048975713 226.49251276471963,423.77142048975713 226.49251276471963,423.77142048975713 225.81224066911605,423.77142048975713 225.81224066911605,424.4516925853607 226.49251276471963,423.77142048975713 226.49251276471963,423.77142048975713 227.17278486032322,423.77142048975713 227.17278486032322,423.77142048975713 227.8530569559268,423.09114839415355 228.5333290515304,423.09114839415355 228.5333290515304,422.41087629854997 229.21360114713397,422.41087629854997 229.8938732427375,422.41087629854997 229.8938732427375,421.7306042029464 230.57414533834108,421.7306042029464 231.25441743394467,421.7306042029464 231.93468952954825,421.7306042029464 231.93468952954825,421.05033210734285 233.29523372075542,421.05033210734285 233.29523372075542,421.05033210734285 233.97550581635898,421.05033210734285 233.97550581635898,421.05033210734285 234.65577791196256,421.05033210734285 235.33605000756614,420.37006001173927 236.0163221031697,420.37006001173927 236.0163221031697,420.37006001173927 236.69659419877328,419.6897879161357 237.37686629437687,419.6897879161357 238.05713838998045,419.6897879161357 238.05713838998045,419.0095158205321 238.73741048558404,419.0095158205321 239.41768258118762,419.0095158205321 240.0979546767912,418.3292437249286 240.0979546767912,418.3292437249286 240.7782267723948,417.648971629325 240.7782267723948,417.648971629325 241.45849886799837,417.648971629325 241.45849886799837,417.648971629325 241.45849886799837,417.648971629325 242.13877096360193,416.9686995337214 242.13877096360193,416.9686995337214 242.13877096360193,416.9686995337214 242.8190430592055,416.9686995337214 242.8190430592055,416.9686995337214 242.8190430592055,416.9686995337214 242.8190430592055,416.9686995337214 242.8190430592055,416.9686995337214 243.4993151548091,416.9686995337214 243.4993151548091,416.9686995337214 243.4993151548091,416.9686995337214 243.4993151548091,416.9686995337214 243.4993151548091,416.9686995337214 244.17958725041268,416.9686995337214 244.17958725041268,416.9686995337214 244.17958725041268,416.9686995337214 244.85985934601626,416.9686995337214 244.85985934601626,416.9686995337214 244.85985934601626,416.9686995337214 243.4993151548091,416.9686995337214 242.8190430592055,416.9686995337214 242.13877096360193,416.9686995337214 241.45849886799837,417.648971629325 240.0979546767912,417.648971629325 239.41768258118762,418.3292437249286 238.73741048558404,418.3292437249286 238.05713838998045,418.3292437249286 237.37686629437687,419.0095158205321 236.69659419877328,419.0095158205321 236.69659419877328,419.6897879161357 236.0163221031697,419.6897879161357 236.0163221031697,419.6897879161357 235.33605000756614,419.6897879161357 234.65577791196256,419.6897879161357 234.65577791196256,420.37006001173927 233.97550581635898,420.37006001173927 233.29523372075542,420.37006001173927 233.29523372075542,420.37006001173927 232.61496162515184,421.05033210734285 232.61496162515184,421.05033210734285 231.93468952954825,421.7306042029464 231.25441743394467,421.7306042029464 231.25441743394467,421.7306042029464 231.25441743394467,421.7306042029464 230.57414533834108,422.41087629854997 230.57414533834108,422.41087629854997 229.8938732427375,422.41087629854997 229.8938732427375,422.41087629854997 229.8938732427375,423.09114839415355 229.8938732427375,423.09114839415355 229.21360114713397,423.09114839415355 229.21360114713397,423.09114839415355 229.21360114713397,423.09114839415355 228.5333290515304,423.09114839415355 228.5333290515304,423.77142048975713 228.5333290515304,423.77142048975713 228.5333290515304,423.77142048975713 227.8530569559268,423.77142048975713 227.8530569559268,424.4516925853607 227.8530569559268,424.4516925853607 227.17278486032322,424.4516925853607 227.17278486032322,424.4516925853607 227.17278486032322,424.4516925853607 226.49251276471963,425.1319646809643 226.49251276471963,425.1319646809643 226.49251276471963,425.1319646809643 227.17278486032322,425.1319646809643 227.17278486032322,425.1319646809643 227.17278486032322,425.1319646809643 227.8530569559268,425.1319646809643 227.8530569559268,425.1319646809643 227.8530569559268,425.1319646809643 228.5333290515304,424.4516925853607 228.5333290515304,424.4516925853607 228.5333290515304,424.4516925853607 229.21360114713397,424.4516925853607 229.21360114713397,424.4516925853607 229.21360114713397,424.4516925853607 229.21360114713397,424.4516925853607 229.8938732427375,423.77142048975713 229.8938732427375,423.77142048975713 229.8938732427375,423.77142048975713 229.8938732427375,423.77142048975713 230.57414533834108,423.09114839415355 230.57414533834108,423.09114839415355 230.57414533834108,423.09114839415355 230.57414533834108,423.09114839415355 230.57414533834108,423.09114839415355 231.25441743394467,423.09114839415355 231.25441743394467,423.09114839415355 231.25441743394467,422.41087629854997 231.25441743394467,422.41087629854997 231.25441743394467,422.41087629854997 231.25441743394467,422.41087629854997 231.93468952954825,422.41087629854997 231.93468952954825,422.41087629854997 231.93468952954825,421.7306042029464 231.93468952954825,421.7306042029464 232.61496162515184,421.7306042029464 232.61496162515184,421.7306042029464 232.61496162515184,421.7306042029464 233.29523372075542,421.7306042029464 233.29523372075542,421.7306042029464 233.29523372075542,421.05033210734285 233.29523372075542,421.05033210734285 233.97550581635898,421.05033210734285 233.97550581635898,421.05033210734285 233.97550581635898,421.05033210734285 234.65577791196256,421.05033210734285 234.65577791196256,420.37006001173927 235.33605000756614,420.37006001173927 235.33605000756614,420.37006001173927 235.33605000756614,420.37006001173927 236.0163221031697,420.37006001173927 236.0163221031697,420.37006001173927 236.69659419877328,419.6897879161357 236.69659419877328,419.6897879161357 236.69659419877328,419.6897879161357 237.37686629437687,419.6897879161357 237.37686629437687,419.6897879161357 237.37686629437687,419.6897879161357 238.05713838998045,419.0095158205321 238.05713838998045,419.0095158205321 238.73741048558404,418.3292437249286 238.73741048558404,418.3292437249286 238.73741048558404,418.3292437249286 239.41768258118762,418.3292437249286 239.41768258118762,418.3292437249286 239.41768258118762,418.3292437249286 240.0979546767912,418.3292437249286 240.0979546767912,418.3292437249286 240.7782267723948,417.648971629325 240.7782267723948,417.648971629325 240.7782267723948,417.648971629325 241.45849886799837,417.648971629325 241.45849886799837,417.648971629325 241.45849886799837,417.648971629325 242.13877096360193,417.648971629325 242.13877096360193,417.648971629325 242.8190430592055,417.648971629325 242.8190430592055,417.648971629325 243.4993151548091,417.648971629325 243.4993151548091,417.648971629325 244.17958725041268,417.648971629325 244.17958725041268,417.648971629325 244.85985934601626,417.648971629325 245.54013144161985,417.648971629325 245.54013144161985,417.648971629325 246.22040353722343,417.648971629325 246.22040353722343,417.648971629325 246.22040353722343,417.648971629325 246.22040353722343,417.648971629325 245.54013144161985,417.648971629325 245.54013144161985,417.648971629325 245.54013144161985,417.648971629325 244.85985934601626,417.648971629325 244.85985934601626,417.648971629325 244.17958725041268,417.648971629325 243.4993151548091,417.648971629325 242.8190430592055,417.648971629325 242.8190430592055,417.648971629325 242.13877096360193,417.648971629325 242.13877096360193,417.648971629325 241.45849886799837,417.648971629325 241.45849886799837,417.648971629325 240.7782267723948,417.648971629325 240.7782267723948,417.648971629325 240.7782267723948,417.648971629325 240.0979546767912,417.648971629325 240.0979546767912,417.648971629325 240.0979546767912,418.3292437249286 239.41768258118762,418.3292437249286 239.41768258118762,418.3292437249286 239.41768258118762,418.3292437249286 239.41768258118762,418.3292437249286 239.41768258118762,419.0095158205321 239.41768258118762,419.0095158205321 240.0979546767912,419.0095158205321 240.0979546767912,419.0095158205321 240.0979546767912,419.0095158205321 240.7782267723948,419.0095158205321 240.7782267723948,419.0095158205321 240.7782267723948,419.0095158205321 240.7782267723948,419.0095158205321 241.45849886799837,419.0095158205321 241.45849886799837,419.0095158205321 241.45849886799837,419.0095158205321 242.13877096360193,419.0095158205321 242.13877096360193,419.0095158205321 242.13877096360193,419.0095158205321 242.8190430592055,419.0095158205321 242.8190430592055,419.0095158205321 243.4993151548091,419.0095158205321 243.4993151548091,418.3292437249286 244.17958725041268,418.3292437249286 244.17958725041268,418.3292437249286 244.85985934601626,418.3292437249286 244.85985934601626,418.3292437249286 244.85985934601626,418.3292437249286 245.54013144161985,418.3292437249286 245.54013144161985,418.3292437249286 246.22040353722343,418.3292437249286 246.90067563282702,418.3292437249286 247.5809477284306,418.3292437249286 248.2612198240341,417.648971629325 248.94149191963768,417.648971629325 248.94149191963768,417.648971629325 249.62176401524127,417.648971629325 250.30203611084485,417.648971629325 250.30203611084485,417.648971629325 250.98230820644844,417.648971629325 251.66258030205202,417.648971629325 251.66258030205202,417.648971629325 253.0231244932592,416.9686995337214 253.70339658886277,416.9686995337214 254.3836686844663,416.9686995337214 255.06394078006988,416.9686995337214 255.74421287567347,416.9686995337214 257.10475706688067,416.9686995337214 257.7850291624842,416.2884274381178 259.14557335369136,416.2884274381178 259.825845449295,416.2884274381178 261.18638964050206,416.2884274381178 263.22720592731287,416.2884274381178 263.9074780229164,416.2884274381178 265.26802221412356,416.2884274381178 267.30883850093426,416.2884274381178 267.9891105965379,416.2884274381178 269.34965478774507,416.2884274381178 270.71019897895223,416.2884274381178 272.0707431701593,416.9686995337214 273.43128736136646,417.648971629325 274.7918315525736,417.648971629325 275.47210364817727,418.3292437249286 276.83264783938444,418.3292437249286 277.51291993498796,419.0095158205321 278.1931920305915,419.0095158205321 278.1931920305915,419.0095158205321 278.87346412619513,419.0095158205321 279.55373622179866,419.6897879161357 280.2340083174023,419.6897879161357 280.9142804130058,419.6897879161357 281.59455250860947,419.6897879161357 281.59455250860947,419.6897879161357 281.59455250860947,419.6897879161357 282.274824604213,419.6897879161357 282.274824604213,419.6897879161357 282.274824604213,419.6897879161357 282.95509669981664,420.37006001173927 282.95509669981664,420.37006001173927 283.63536879542016,420.37006001173927 283.63536879542016,420.37006001173927 283.63536879542016,420.37006001173927 283.63536879542016,420.37006001173927 282.95509669981664,419.6897879161357 282.95509669981664,419.0095158205321 281.59455250860947,419.0095158205321 280.9142804130058,418.3292437249286 280.2340083174023,417.648971629325 279.55373622179866,417.648971629325 278.1931920305915,416.9686995337214 277.51291993498796,416.9686995337214 276.1523757437808,416.2884274381178 275.47210364817727,416.2884274381178 274.7918315525736,416.2884274381178 274.7918315525736,416.2884274381178 273.43128736136646,415.60815534251424 272.0707431701593,415.60815534251424 271.39047107455576,415.60815534251424 270.0299268833486,415.60815534251424 269.34965478774507,415.60815534251424 268.6693826921414,415.60815534251424 267.9891105965379,415.60815534251424 267.30883850093426,414.92788324691065 266.62856640533073,414.92788324691065 265.9482943097271,414.92788324691065 265.9482943097271,414.92788324691065 265.9482943097271,414.92788324691065 265.9482943097271,414.92788324691065 265.9482943097271,414.92788324691065 266.62856640533073,414.92788324691065 266.62856640533073,415.60815534251424 267.30883850093426,415.60815534251424 267.30883850093426,415.60815534251424 267.9891105965379,416.2884274381178 268.6693826921414,416.2884274381178 268.6693826921414,416.2884274381178 269.34965478774507,416.9686995337214 269.34965478774507,416.9686995337214 270.0299268833486,416.9686995337214 270.71019897895223,417.648971629325 270.71019897895223,417.648971629325 271.39047107455576,417.648971629325 271.39047107455576,417.648971629325 272.0707431701593,418.3292437249286 272.0707431701593,418.3292437249286 272.0707431701593,418.3292437249286 272.0707431701593,418.3292437249286 272.75101526576293,418.3292437249286 272.75101526576293,418.3292437249286 272.75101526576293,418.3292437249286 272.75101526576293,419.0095158205321 273.43128736136646,419.0095158205321 273.43128736136646,419.0095158205321 273.43128736136646,419.0095158205321 273.43128736136646,419.0095158205321 274.1115594569701,419.6897879161357 274.1115594569701,419.6897879161357 274.1115594569701,419.6897879161357 274.7918315525736,419.6897879161357 274.7918315525736,420.37006001173927 274.7918315525736,420.37006001173927 275.47210364817727,420.37006001173927 275.47210364817727,420.37006001173927 276.1523757437808,420.37006001173927 276.1523757437808,421.05033210734285 276.1523757437808,421.05033210734285 276.83264783938444,421.05033210734285 276.83264783938444,421.05033210734285 276.83264783938444,421.05033210734285 277.51291993498796,421.05033210734285 277.51291993498796,421.05033210734285 277.51291993498796,421.05033210734285 277.51291993498796,421.05033210734285 277.51291993498796,421.05033210734285 278.1931920305915,421.7306042029464 278.1931920305915,421.7306042029464 278.1931920305915,421.7306042029464 278.1931920305915,421.7306042029464 278.87346412619513,421.7306042029464 278.87346412619513,421.7306042029464 278.87346412619513,421.7306042029464 279.55373622179866,421.7306042029464 279.55373622179866,422.41087629854997 279.55373622179866,422.41087629854997 280.2340083174023,422.41087629854997 280.2340083174023,422.41087629854997 280.2340083174023,422.41087629854997 280.9142804130058,422.41087629854997 280.9142804130058,422.41087629854997 280.9142804130058,422.41087629854997 280.9142804130058,423.09114839415355 280.9142804130058,423.09114839415355 281.59455250860947,423.09114839415355 281.59455250860947,423.09114839415355 281.59455250860947,423.09114839415355 281.59455250860947,423.09114839415355 281.59455250860947,423.09114839415355 282.274824604213,423.77142048975713 282.274824604213,423.77142048975713 282.274824604213,423.77142048975713 282.95509669981664,423.77142048975713 282.95509669981664,424.4516925853607 282.95509669981664,424.4516925853607 283.63536879542016,424.4516925853607 284.3156408910237,424.4516925853607 284.3156408910237,425.1319646809643 284.99591298662733,425.1319646809643 284.99591298662733,425.1319646809643 285.67618508223086,425.1319646809643 285.67618508223086,425.1319646809643 286.3564571778345,425.8122367765679 286.3564571778345,425.8122367765679 286.3564571778345,425.8122367765679 287.036729273438,425.8122367765679 287.036729273438,426.49250887217147 287.036729273438,426.49250887217147 287.71700136904167,426.49250887217147 287.71700136904167,426.49250887217147 287.71700136904167,426.49250887217147 288.3972734646452,427.17278096777505 288.3972734646452,427.17278096777505 288.3972734646452,427.17278096777505 289.07754556024884,427.17278096777505 289.07754556024884,427.17278096777505 289.07754556024884,427.17278096777505 290.4380897514559,427.17278096777505 290.4380897514559,427.17278096777505 291.11836184705953,427.17278096777505 291.79863394266306,427.17278096777505 291.79863394266306,427.17278096777505 292.4789060382667,427.17278096777505 293.1591781338702,427.17278096777505 293.1591781338702,427.17278096777505 293.83945022947387,427.85305306337864 294.5197223250774,427.85305306337864 294.5197223250774,427.85305306337864 295.19999442068104,427.85305306337864 295.19999442068104,427.85305306337864 295.19999442068104,427.85305306337864 295.19999442068104,428.5333251589822 295.19999442068104,428.5333251589822 294.5197223250774,428.5333251589822 294.5197223250774,427.85305306337864 294.5197223250774,427.85305306337864 294.5197223250774,427.85305306337864 294.5197223250774,427.85305306337864 293.83945022947387,427.85305306337864 293.1591781338702,427.85305306337864 293.1591781338702,427.17278096777505 292.4789060382667,427.17278096777505 291.79863394266306,427.17278096777505 291.79863394266306,427.17278096777505 291.11836184705953,427.17278096777505 290.4380897514559,427.17278096777505 289.75781765585236,426.49250887217147 289.75781765585236,426.49250887217147 288.3972734646452,425.8122367765679 288.3972734646452,425.8122367765679 287.71700136904167,425.8122367765679 287.036729273438,425.1319646809643 287.036729273438,425.1319646809643 286.3564571778345,425.1319646809643 286.3564571778345,425.1319646809643 285.67618508223086,425.1319646809643 285.67618508223086,424.4516925853607 284.99591298662733,424.4516925853607 284.99591298662733,424.4516925853607 284.99591298662733,424.4516925853607 284.99591298662733,424.4516925853607 284.3156408910237,423.77142048975713 284.3156408910237,423.77142048975713 284.3156408910237,423.77142048975713 283.63536879542016,423.77142048975713 283.63536879542016,423.77142048975713 283.63536879542016,423.77142048975713 283.63536879542016,423.09114839415355 282.95509669981664,423.09114839415355 282.95509669981664,423.09114839415355 282.95509669981664,423.09114839415355 282.274824604213,422.41087629854997 282.274824604213,422.41087629854997 281.59455250860947,422.41087629854997 281.59455250860947,422.41087629854997 281.59455250860947,421.7306042029464 280.9142804130058,421.7306042029464 280.9142804130058,421.7306042029464 280.9142804130058,421.7306042029464 280.2340083174023,421.7306042029464 280.2340083174023,421.05033210734285 279.55373622179866,421.05033210734285 279.55373622179866,421.05033210734285 278.87346412619513,420.37006001173927 278.87346412619513,420.37006001173927 278.87346412619513,420.37006001173927 278.1931920305915,419.6897879161357 278.1931920305915,419.6897879161357 277.51291993498796,419.6897879161357 277.51291993498796,419.6897879161357 277.51291993498796,419.6897879161357 276.83264783938444,419.6897879161357 276.83264783938444,419.0095158205321 276.83264783938444,419.0095158205321 276.83264783938444,419.0095158205321 276.1523757437808,419.0095158205321 276.1523757437808,419.0095158205321 276.1523757437808,419.0095158205321 276.1523757437808,419.0095158205321 275.47210364817727,419.0095158205321 275.47210364817727,419.0095158205321 275.47210364817727,419.0095158205321 275.47210364817727,419.0095158205321 274.7918315525736,419.0095158205321 274.7918315525736,419.0095158205321 274.7918315525736,419.0095158205321 274.1115594569701,419.0095158205321 274.1115594569701,419.0095158205321 274.1115594569701,419.0095158205321 274.1115594569701,419.0095158205321 273.43128736136646,419.0095158205321 273.43128736136646,419.0095158205321 273.43128736136646,419.0095158205321 273.43128736136646,419.0095158205321 273.43128736136646,419.0095158205321 272.75101526576293,419.0095158205321 272.75101526576293,419.0095158205321 272.75101526576293,419.0095158205321 272.0707431701593,418.3292437249286 272.0707431701593,418.3292437249286 272.0707431701593,418.3292437249286 272.0707431701593,418.3292437249286 271.39047107455576,418.3292437249286 271.39047107455576,418.3292437249286 271.39047107455576,418.3292437249286 271.39047107455576,418.3292437249286 270.71019897895223,418.3292437249286 270.71019897895223,418.3292437249286 270.71019897895223,418.3292437249286 270.71019897895223,418.3292437249286 270.71019897895223,418.3292437249286 270.0299268833486,418.3292437249286 270.0299268833486,418.3292437249286 270.0299268833486,418.3292437249286 270.0299268833486,418.3292437249286 270.0299268833486,418.3292437249286 269.34965478774507,418.3292437249286 269.34965478774507,418.3292437249286 269.34965478774507,418.3292437249286 269.34965478774507,418.3292437249286 268.6693826921414,418.3292437249286 268.6693826921414,418.3292437249286 268.6693826921414,418.3292437249286 268.6693826921414,418.3292437249286 267.9891105965379,418.3292437249286 267.9891105965379,418.3292437249286 267.9891105965379,418.3292437249286 267.9891105965379,418.3292437249286 267.30883850093426,418.3292437249286 267.30883850093426,418.3292437249286 267.30883850093426,418.3292437249286 267.30883850093426,418.3292437249286 267.30883850093426,417.648971629325 266.62856640533073,417.648971629325 266.62856640533073,417.648971629325 266.62856640533073,417.648971629325 266.62856640533073,417.648971629325 265.9482943097271,417.648971629325 265.9482943097271,417.648971629325 265.9482943097271,417.648971629325 265.9482943097271,417.648971629325 265.9482943097271,417.648971629325 265.26802221412356,417.648971629325 265.26802221412356,417.648971629325 265.26802221412356,417.648971629325 264.58775011852003,417.648971629325 264.58775011852003,417.648971629325 264.58775011852003,417.648971629325 263.9074780229164,416.9686995337214 263.9074780229164,416.9686995337214 263.9074780229164,416.9686995337214 263.9074780229164,416.9686995337214 263.22720592731287,416.9686995337214 263.22720592731287,416.9686995337214 263.22720592731287,416.9686995337214 262.5469338317092,416.9686995337214 262.5469338317092,416.9686995337214 262.5469338317092,416.9686995337214 261.8666617361057,416.9686995337214 261.8666617361057,416.9686995337214 261.8666617361057,416.9686995337214 261.18638964050206,416.9686995337214 261.18638964050206,416.9686995337214 260.50611754489853,416.9686995337214 260.50611754489853,416.9686995337214 259.825845449295,416.9686995337214 259.14557335369136,416.9686995337214 258.46530125808783,416.9686995337214 257.7850291624842,416.9686995337214 257.7850291624842,416.9686995337214 257.7850291624842,416.9686995337214 257.10475706688067,416.9686995337214 257.10475706688067,416.9686995337214 257.10475706688067,417.648971629325 257.7850291624842,417.648971629325 257.7850291624842,417.648971629325 257.7850291624842,417.648971629325 258.46530125808783,417.648971629325 258.46530125808783,417.648971629325 258.46530125808783,418.3292437249286 259.14557335369136,418.3292437249286 259.14557335369136,418.3292437249286 259.14557335369136,418.3292437249286 259.14557335369136,418.3292437249286 259.825845449295,418.3292437249286 259.825845449295,418.3292437249286 259.825845449295,418.3292437249286 259.825845449295,418.3292437249286 260.50611754489853,418.3292437249286 260.50611754489853,418.3292437249286 260.50611754489853,418.3292437249286 260.50611754489853,418.3292437249286 261.18638964050206,418.3292437249286 261.18638964050206,418.3292437249286 261.18638964050206,418.3292437249286 261.18638964050206,418.3292437249286 261.8666617361057,418.3292437249286 261.8666617361057,418.3292437249286 261.8666617361057,418.3292437249286 261.8666617361057,418.3292437249286 262.5469338317092,418.3292437249286 262.5469338317092,418.3292437249286 262.5469338317092,418.3292437249286 262.5469338317092,418.3292437249286 262.5469338317092,419.0095158205321 263.22720592731287,419.0095158205321 263.22720592731287,419.0095158205321 263.22720592731287,419.0095158205321 263.9074780229164,419.0095158205321 263.9074780229164,419.0095158205321 263.9074780229164,419.0095158205321 263.9074780229164,419.0095158205321 264.58775011852003,419.0095158205321 264.58775011852003,419.0095158205321 264.58775011852003,419.0095158205321 264.58775011852003,419.0095158205321 265.26802221412356,419.0095158205321 265.26802221412356,419.0095158205321 265.26802221412356,419.0095158205321 265.26802221412356,419.0095158205321 265.9482943097271,419.0095158205321 265.9482943097271,419.0095158205321 265.9482943097271,419.0095158205321 265.9482943097271,419.0095158205321 266.62856640533073,419.0095158205321 266.62856640533073,419.0095158205321 266.62856640533073,419.0095158205321 266.62856640533073,419.0095158205321 267.30883850093426,419.0095158205321 267.30883850093426,419.0095158205321 267.30883850093426,419.0095158205321 267.9891105965379,419.0095158205321 267.9891105965379,419.0095158205321 267.9891105965379,419.0095158205321 267.9891105965379,419.0095158205321 268.6693826921414,419.0095158205321 268.6693826921414,419.0095158205321 268.6693826921414,419.0095158205321 268.6693826921414,419.0095158205321 268.6693826921414,419.0095158205321 269.34965478774507,419.0095158205321 269.34965478774507,419.0095158205321 269.34965478774507,419.0095158205321 269.34965478774507,419.0095158205321 269.34965478774507,419.6897879161357 270.0299268833486,419.6897879161357 270.0299268833486,419.6897879161357 270.0299268833486,419.6897879161357 270.0299268833486,419.6897879161357 270.71019897895223,419.6897879161357 270.71019897895223,419.6897879161357 270.71019897895223,419.6897879161357 270.71019897895223,419.6897879161357 271.39047107455576,419.6897879161357 271.39047107455576,420.37006001173927 271.39047107455576,420.37006001173927 271.39047107455576,420.37006001173927 272.0707431701593,420.37006001173927 272.0707431701593,420.37006001173927 272.0707431701593,420.37006001173927 272.0707431701593,420.37006001173927 272.75101526576293,420.37006001173927 272.75101526576293,420.37006001173927 273.43128736136646,420.37006001173927 273.43128736136646,420.37006001173927 273.43128736136646,420.37006001173927 274.1115594569701,420.37006001173927 274.1115594569701,420.37006001173927 274.1115594569701,420.37006001173927 274.7918315525736,420.37006001173927 274.7918315525736,420.37006001173927 274.7918315525736,420.37006001173927 275.47210364817727,421.05033210734285 275.47210364817727,421.05033210734285 275.47210364817727,421.05033210734285 276.1523757437808,421.05033210734285 276.1523757437808,421.05033210734285 276.83264783938444,421.05033210734285 276.83264783938444,421.05033210734285 276.83264783938444,421.05033210734285 277.51291993498796,421.05033210734285 277.51291993498796,421.05033210734285 277.51291993498796,421.05033210734285 277.51291993498796,421.05033210734285 278.1931920305915,421.7306042029464 278.1931920305915,421.7306042029464 278.1931920305915,421.7306042029464 278.1931920305915,421.7306042029464 278.87346412619513,421.7306042029464 278.87346412619513,421.7306042029464 278.87346412619513,421.7306042029464 278.87346412619513,422.41087629854997 278.87346412619513,422.41087629854997 279.55373622179866,422.41087629854997 279.55373622179866,422.41087629854997 279.55373622179866,422.41087629854997 279.55373622179866,422.41087629854997 280.2340083174023,422.41087629854997 280.2340083174023,423.09114839415355 280.2340083174023,423.09114839415355 280.9142804130058,423.09114839415355 280.9142804130058,423.09114839415355 280.9142804130058,423.09114839415355 281.59455250860947,423.09114839415355 281.59455250860947,423.09114839415355 281.59455250860947,423.09114839415355 282.274824604213,423.77142048975713 282.274824604213,423.77142048975713 282.274824604213,423.77142048975713 282.274824604213,423.77142048975713 282.95509669981664,423.77142048975713 282.95509669981664,423.77142048975713 282.95509669981664,423.77142048975713 282.95509669981664,423.77142048975713 283.63536879542016,423.77142048975713 283.63536879542016,424.4516925853607 283.63536879542016,424.4516925853607 283.63536879542016,424.4516925853607 284.3156408910237,424.4516925853607 284.3156408910237,424.4516925853607 284.3156408910237,424.4516925853607 284.3156408910237,424.4516925853607 284.99591298662733,424.4516925853607 284.99591298662733,424.4516925853607 284.99591298662733,425.1319646809643 285.67618508223086,425.1319646809643 285.67618508223086,425.1319646809643 286.3564571778345,425.1319646809643 286.3564571778345,425.1319646809643 287.036729273438,425.1319646809643 287.036729273438,425.1319646809643 287.71700136904167,425.1319646809643 288.3972734646452,425.1319646809643 289.07754556024884,425.1319646809643 290.4380897514559,425.1319646809643 291.11836184705953,425.1319646809643 291.79863394266306,425.8122367765679 293.1591781338702,425.8122367765679 293.83945022947387,425.8122367765679 295.19999442068104,425.8122367765679 296.5605386118881,426.49250887217147 297.92108280309526,426.49250887217147 299.2816269943024,426.49250887217147 301.32244328111324,427.17278096777505 303.36325956792393,427.17278096777505 306.08434795033827,427.17278096777505 307.44489214154544,427.17278096777505 309.48570842835613,427.17278096777505 310.8462526195633,427.17278096777505 311.52652471516683,427.17278096777505 312.887068906374,427.17278096777505 313.56734100197764,427.17278096777505 " style="color: rgb(0, 0, 0);"/><polyline fill="none" stroke="#ffffff" stroke-width="6" stroke-linejoin="round" stroke-dashoffset="" fill-rule="nonzero" marker-start="" marker-mid="" marker-end="" id="svg_24" points="215.60815923506243,426.49250887217147 215.60815923506243,426.49250887217147 216.28843133066601,426.49250887217147 216.9687034262696,426.49250887217147 217.64897552187318,425.8122367765679 219.00951971308027,425.1319646809643 221.05033599989102,424.4516925853607 222.4108801910982,423.77142048975713 223.77142438230536,423.09114839415355 224.45169647790888,423.09114839415355 225.13196857351247,422.41087629854997 225.81224066911605,422.41087629854997 225.81224066911605,421.7306042029464 226.49251276471963,421.7306042029464 227.17278486032322,421.7306042029464 227.17278486032322,421.7306042029464 227.8530569559268,421.05033210734285 227.8530569559268,421.05033210734285 228.5333290515304,421.05033210734285 229.21360114713397,420.37006001173927 229.21360114713397,420.37006001173927 229.8938732427375,419.6897879161357 230.57414533834108,419.6897879161357 230.57414533834108,419.6897879161357 231.25441743394467,419.0095158205321 " style="color: rgb(0, 0, 0);"/><polyline fill="none" stroke="#ffffff" stroke-width="12" stroke-linejoin="round" stroke-dashoffset="" fill-rule="nonzero" marker-start="" marker-mid="" marker-end="" id="svg_43" points="186.35645912410854,420.37006001173927 186.35645912410854,420.37006001173927 " style="color: rgb(0, 0, 0);" class="selected"/><polyline fill="none" stroke="#ffffff" stroke-width="8" stroke-linejoin="round" stroke-dashoffset="" fill-rule="nonzero" marker-start="" marker-mid="" marker-end="" id="svg_44" points="216.28843133066593,429.21359725458575 216.28843133066593,429.21359725458575 216.28843133066593,429.21359725458575 216.9687034262695,428.5333251589822 217.6489755218731,427.85305306337864 219.00951971308027,427.17278096777505 219.68979180868385,426.49250887217147 221.05033599989102,425.1319646809643 223.0911522867017,423.77142048975713 223.7714243823053,423.09114839415355 225.13196857351247,422.41087629854997 225.81224066911605,421.7306042029464 226.49251276471963,421.05033210734285 227.17278486032322,421.05033210734285 227.17278486032322,420.37006001173927 227.85305695592675,420.37006001173927 227.85305695592675,419.6897879161357 227.85305695592675,419.6897879161357 227.85305695592675,419.6897879161357 228.53332905153033,419.0095158205321 228.53332905153033,419.0095158205321 228.53332905153033,419.0095158205321 228.53332905153033,419.0095158205321 227.85305695592675,419.0095158205321 227.17278486032322,419.6897879161357 226.49251276471963,420.37006001173927 225.81224066911605,420.37006001173927 225.13196857351247,421.05033210734285 224.45169647790888,421.7306042029464 223.0911522867017,421.7306042029464 222.41088019109813,423.09114839415355 221.05033599989102,423.09114839415355 220.37006390428743,423.77142048975713 219.68979180868385,424.4516925853607 219.00951971308027,425.1319646809643 218.32924761747668,425.8122367765679 217.6489755218731,425.8122367765679 216.9687034262695,426.49250887217147 216.9687034262695,426.49250887217147 216.28843133066593,427.17278096777505 216.28843133066593,427.85305306337864 215.60815923506243,427.85305306337864 215.60815923506243,428.5333251589822 215.60815923506243,428.5333251589822 215.60815923506243,428.5333251589822 215.60815923506243,428.5333251589822 215.60815923506243,428.5333251589822 216.28843133066593,428.5333251589822 216.9687034262695,428.5333251589822 218.32924761747668,427.85305306337864 219.00951971308027,427.17278096777505 220.37006390428743,425.8122367765679 221.7306080954946,425.1319646809643 221.7306080954946,425.1319646809643 223.0911522867017,424.4516925853607 223.7714243823053,423.77142048975713 224.45169647790888,423.09114839415355 225.13196857351247,422.41087629854997 225.81224066911605,421.7306042029464 226.49251276471963,421.05033210734285 226.49251276471963,420.37006001173927 227.17278486032322,420.37006001173927 227.85305695592675,419.6897879161357 228.53332905153033,419.6897879161357 228.53332905153033,419.0095158205321 229.21360114713391,418.3292437249285 229.21360114713391,418.3292437249285 229.21360114713391,418.3292437249285 229.21360114713391,419.0095158205321 229.21360114713391,419.0095158205321 229.21360114713391,419.0095158205321 228.53332905153033,419.6897879161357 227.85305695592675,420.37006001173927 227.85305695592675,420.37006001173927 227.17278486032322,421.05033210734285 226.49251276471963,421.7306042029464 225.81224066911605,422.41087629854997 225.13196857351247,423.09114839415355 225.13196857351247,423.77142048975713 224.45169647790888,424.4516925853607 223.7714243823053,424.4516925853607 223.7714243823053,425.1319646809643 223.0911522867017,425.1319646809643 223.0911522867017,425.8122367765679 222.41088019109813,425.8122367765679 222.41088019109813,426.49250887217147 221.7306080954946,427.17278096777505 221.05033599989102,427.17278096777505 221.05033599989102,427.17278096777505 221.05033599989102,427.85305306337864 220.37006390428743,427.85305306337864 220.37006390428743,427.85305306337864 220.37006390428743,427.85305306337864 221.05033599989102,427.85305306337864 221.05033599989102,427.85305306337864 221.05033599989102,427.85305306337864 221.7306080954946,427.17278096777505 221.7306080954946,427.17278096777505 222.41088019109813,426.49250887217147 223.0911522867017,426.49250887217147 223.0911522867017,426.49250887217147 223.7714243823053,425.8122367765679 223.7714243823053,425.8122367765679 225.13196857351247,425.1319646809643 225.13196857351247,424.4516925853607 225.81224066911605,424.4516925853607 227.17278486032322,423.77142048975713 227.17278486032322,423.09114839415355 227.85305695592675,423.09114839415355 227.85305695592675,422.41087629854997 228.53332905153033,422.41087629854997 229.21360114713391,422.41087629854997 229.21360114713391,421.7306042029464 229.21360114713391,421.7306042029464 229.21360114713391,421.7306042029464 229.21360114713391,421.7306042029464 229.8938732427375,421.7306042029464 229.8938732427375,421.05033210734285 229.21360114713391,421.05033210734285 229.21360114713391,421.7306042029464 229.21360114713391,421.7306042029464 228.53332905153033,422.41087629854997 227.85305695592675,423.09114839415355 227.85305695592675,423.09114839415355 227.17278486032322,423.77142048975713 226.49251276471963,424.4516925853607 225.81224066911605,424.4516925853607 225.13196857351247,425.1319646809643 224.45169647790888,425.8122367765679 224.45169647790888,426.49250887217147 223.7714243823053,427.17278096777505 223.0911522867017,427.17278096777505 223.0911522867017,427.85305306337864 222.41088019109813,427.85305306337864 222.41088019109813,428.5333251589822 221.7306080954946,428.5333251589822 221.7306080954946,429.21359725458575 221.05033599989102,429.21359725458575 221.05033599989102,429.21359725458575 221.05033599989102,429.89386935018933 221.05033599989102,429.21359725458575 221.05033599989102,429.21359725458575 221.05033599989102,429.21359725458575 221.7306080954946,429.21359725458575 221.7306080954946,429.21359725458575 221.7306080954946,429.21359725458575 221.7306080954946,428.5333251589822 222.41088019109813,428.5333251589822 222.41088019109813,428.5333251589822 222.41088019109813,428.5333251589822 223.0911522867017,427.85305306337864 223.0911522867017,427.85305306337864 223.7714243823053,427.85305306337864 223.7714243823053,427.17278096777505 224.45169647790888,427.17278096777505 224.45169647790888,426.49250887217147 225.13196857351247,426.49250887217147 225.13196857351247,425.8122367765679 225.81224066911605,425.8122367765679 225.81224066911605,425.8122367765679 225.81224066911605,425.8122367765679 226.49251276471963,425.1319646809643 226.49251276471963,425.1319646809643 226.49251276471963,425.1319646809643 226.49251276471963,424.4516925853607 227.17278486032322,424.4516925853607 227.17278486032322,424.4516925853607 227.17278486032322,424.4516925853607 227.17278486032322,424.4516925853607 227.85305695592675,423.77142048975713 227.85305695592675,423.77142048975713 228.53332905153033,423.77142048975713 228.53332905153033,423.77142048975713 228.53332905153033,423.09114839415355 229.21360114713391,423.09114839415355 229.21360114713391,423.09114839415355 229.8938732427375,422.41087629854997 229.8938732427375,422.41087629854997 229.8938732427375,422.41087629854997 230.57414533834108,422.41087629854997 230.57414533834108,422.41087629854997 231.25441743394467,421.7306042029464 231.25441743394467,421.7306042029464 231.93468952954825,421.7306042029464 231.93468952954825,421.7306042029464 232.61496162515184,421.7306042029464 232.61496162515184,421.05033210734285 232.61496162515184,421.05033210734285 233.29523372075542,421.05033210734285 233.29523372075542,421.05033210734285 233.29523372075542,421.05033210734285 233.97550581635895,420.37006001173927 233.97550581635895,420.37006001173927 233.97550581635895,420.37006001173927 233.97550581635895,420.37006001173927 234.65577791196253,420.37006001173927 235.33605000756612,420.37006001173927 235.33605000756612,419.6897879161357 235.33605000756612,419.6897879161357 235.33605000756612,419.6897879161357 236.0163221031697,419.6897879161357 236.0163221031697,419.6897879161357 236.0163221031697,419.6897879161357 236.0163221031697,419.6897879161357 236.69659419877328,419.6897879161357 236.69659419877328,419.0095158205321 236.69659419877328,419.0095158205321 237.37686629437687,419.0095158205321 237.37686629437687,419.0095158205321 237.37686629437687,419.0095158205321 237.37686629437687,419.0095158205321 238.05713838998045,419.0095158205321 238.05713838998045,419.0095158205321 238.05713838998045,419.0095158205321 238.73741048558404,418.3292437249285 238.73741048558404,418.3292437249285 238.73741048558404,418.3292437249285 238.73741048558404,418.3292437249285 239.41768258118762,418.3292437249285 239.41768258118762,418.3292437249285 240.09795467679118,418.3292437249285 240.09795467679118,418.3292437249285 240.77822677239476,417.64897162932493 240.77822677239476,417.64897162932493 240.77822677239476,417.64897162932493 241.45849886799834,417.64897162932493 241.45849886799834,417.64897162932493 242.13877096360193,417.64897162932493 242.8190430592055,417.64897162932493 243.4993151548091,417.64897162932493 244.17958725041268,417.64897162932493 244.85985934601626,416.96869953372135 245.54013144161985,416.96869953372135 246.22040353722335,416.96869953372135 246.90067563282693,416.96869953372135 248.2612198240341,416.96869953372135 249.62176401524127,416.96869953372135 250.30203611084485,416.2884274381178 251.66258030205202,416.2884274381178 252.34285239765555,416.2884274381178 253.70339658886272,416.2884274381178 255.74421287567347,416.2884274381178 257.10475706688067,415.60815534251424 258.4653012580877,415.60815534251424 259.8258454492949,415.60815534251424 262.5469338317092,415.60815534251424 265.9482943097271,415.60815534251424 269.34965478774507,415.60815534251424 271.39047107455576,415.60815534251424 " style="color: rgb(0, 0, 0);"/><polyline fill="none" stroke="#ffffff" stroke-width="8" stroke-linejoin="round" stroke-dashoffset="" fill-rule="nonzero" marker-start="" marker-mid="" marker-end="" id="svg_46" points="262.5469338317092,413.5673390557035 262.5469338317092,413.5673390557035 262.5469338317092,413.5673390557035 261.18638964050206,413.5673390557035 259.8258454492949,413.5673390557035 259.14557335369136,413.5673390557035 257.7850291624842,413.5673390557035 257.10475706688067,413.5673390557035 255.74421287567347,413.5673390557035 254.3836686844663,413.5673390557035 253.70339658886272,413.5673390557035 252.34285239765555,413.5673390557035 251.66258030205202,413.5673390557035 250.98230820644844,413.5673390557035 249.62176401524127,413.5673390557035 248.2612198240341,413.5673390557035 248.2612198240341,413.5673390557035 246.90067563282693,413.5673390557035 245.54013144161985,413.5673390557035 244.85985934601626,413.5673390557035 243.4993151548091,414.24761115130707 242.8190430592055,414.24761115130707 242.13877096360193,414.24761115130707 241.45849886799834,414.92788324691065 240.77822677239476,414.92788324691065 240.09795467679118,414.92788324691065 239.41768258118762,415.60815534251424 238.73741048558404,415.60815534251424 237.37686629437687,416.2884274381178 236.69659419877328,416.2884274381178 236.0163221031697,416.96869953372135 235.33605000756612,416.96869953372135 234.65577791196253,417.64897162932493 233.29523372075542,417.64897162932493 232.61496162515184,418.3292437249285 231.93468952954825,419.0095158205321 231.25441743394467,419.0095158205321 229.8938732427375,419.6897879161357 229.21360114713391,419.6897879161357 228.53332905153033,420.37006001173927 227.85305695592675,420.37006001173927 227.17278486032322,421.05033210734285 226.49251276471963,421.05033210734285 225.81224066911605,421.7306042029464 225.13196857351247,421.7306042029464 224.45169647790888,422.41087629854997 223.7714243823053,422.41087629854997 223.7714243823053,423.09114839415355 223.0911522867017,423.77142048975713 222.41088019109813,423.77142048975713 221.05033599989102,424.4516925853607 220.37006390428743,425.1319646809643 219.68979180868385,425.8122367765679 219.00951971308027,425.8122367765679 218.32924761747668,426.49250887217147 216.9687034262695,427.17278096777505 216.9687034262695,427.17278096777505 216.28843133066593,427.85305306337864 215.60815923506243,428.5333251589822 215.60815923506243,428.5333251589822 214.92788713945885,429.21359725458575 214.24761504385526,429.89386935018933 214.24761504385526,430.5741414457929 213.56734294825162,430.5741414457929 213.56734294825162,431.2544135413965 213.56734294825162,431.2544135413965 213.56734294825162,431.9346856370001 213.56734294825162,431.9346856370001 213.56734294825162,431.9346856370001 213.56734294825162,431.9346856370001 213.56734294825162,431.9346856370001 213.56734294825162,431.9346856370001 214.24761504385526,431.9346856370001 214.24761504385526,431.9346856370001 214.24761504385526,431.9346856370001 214.92788713945885,431.9346856370001 214.92788713945885,431.9346856370001 215.60815923506243,431.9346856370001 215.60815923506243,431.9346856370001 216.28843133066593,431.9346856370001 216.28843133066593,431.9346856370001 216.28843133066593,431.9346856370001 216.9687034262695,431.2544135413965 216.9687034262695,431.2544135413965 217.6489755218731,431.2544135413965 217.6489755218731,431.2544135413965 218.32924761747668,430.5741414457929 218.32924761747668,430.5741414457929 218.32924761747668,430.5741414457929 219.00951971308027,430.5741414457929 219.00951971308027,429.89386935018933 219.00951971308027,429.89386935018933 219.68979180868385,429.89386935018933 219.68979180868385,429.89386935018933 219.68979180868385,429.89386935018933 219.68979180868385,429.21359725458575 220.37006390428743,429.21359725458575 220.37006390428743,429.21359725458575 220.37006390428743,428.5333251589822 221.05033599989102,428.5333251589822 221.05033599989102,428.5333251589822 221.7306080954946,427.85305306337864 221.7306080954946,427.85305306337864 222.41088019109813,427.85305306337864 222.41088019109813,427.17278096777505 222.41088019109813,426.49250887217147 223.0911522867017,426.49250887217147 223.0911522867017,426.49250887217147 223.7714243823053,425.8122367765679 223.7714243823053,425.8122367765679 223.7714243823053,425.8122367765679 224.45169647790888,425.8122367765679 224.45169647790888,425.1319646809643 225.13196857351247,425.1319646809643 225.13196857351247,425.1319646809643 225.81224066911605,425.1319646809643 225.81224066911605,424.4516925853607 226.49251276471963,424.4516925853607 226.49251276471963,424.4516925853607 226.49251276471963,424.4516925853607 227.17278486032322,424.4516925853607 227.17278486032322,424.4516925853607 227.85305695592675,424.4516925853607 227.85305695592675,423.77142048975713 228.53332905153033,423.77142048975713 228.53332905153033,423.77142048975713 229.21360114713391,423.77142048975713 229.21360114713391,423.77142048975713 229.8938732427375,423.77142048975713 229.8938732427375,423.77142048975713 229.8938732427375,423.77142048975713 230.57414533834108,423.09114839415355 230.57414533834108,423.09114839415355 231.25441743394467,423.09114839415355 231.25441743394467,423.09114839415355 231.93468952954825,423.09114839415355 231.93468952954825,423.09114839415355 231.93468952954825,423.09114839415355 232.61496162515184,422.41087629854997 232.61496162515184,422.41087629854997 232.61496162515184,422.41087629854997 233.29523372075542,422.41087629854997 233.29523372075542,422.41087629854997 233.29523372075542,422.41087629854997 233.29523372075542,422.41087629854997 233.97550581635895,421.7306042029464 233.97550581635895,421.7306042029464 233.97550581635895,421.7306042029464 233.97550581635895,421.7306042029464 233.97550581635895,421.7306042029464 234.65577791196253,421.7306042029464 234.65577791196253,421.7306042029464 234.65577791196253,421.7306042029464 234.65577791196253,421.7306042029464 235.33605000756612,421.7306042029464 235.33605000756612,421.7306042029464 235.33605000756612,421.7306042029464 235.33605000756612,421.05033210734285 235.33605000756612,421.05033210734285 236.0163221031697,421.05033210734285 236.0163221031697,421.05033210734285 236.0163221031697,421.05033210734285 236.0163221031697,421.05033210734285 236.0163221031697,421.05033210734285 236.69659419877328,421.05033210734285 236.69659419877328,421.05033210734285 236.69659419877328,421.05033210734285 237.37686629437687,420.37006001173927 237.37686629437687,420.37006001173927 237.37686629437687,420.37006001173927 238.05713838998045,420.37006001173927 238.05713838998045,420.37006001173927 238.05713838998045,420.37006001173927 238.05713838998045,420.37006001173927 238.73741048558404,419.6897879161357 238.73741048558404,419.6897879161357 238.73741048558404,419.6897879161357 238.73741048558404,419.6897879161357 239.41768258118762,419.6897879161357 239.41768258118762,419.6897879161357 239.41768258118762,419.6897879161357 239.41768258118762,419.6897879161357 240.09795467679118,419.6897879161357 240.09795467679118,419.0095158205321 240.09795467679118,419.0095158205321 240.09795467679118,419.0095158205321 240.09795467679118,419.0095158205321 240.77822677239476,419.0095158205321 240.77822677239476,419.0095158205321 240.77822677239476,419.0095158205321 240.77822677239476,419.0095158205321 241.45849886799834,419.0095158205321 241.45849886799834,419.0095158205321 241.45849886799834,419.0095158205321 242.13877096360193,419.0095158205321 242.13877096360193,419.0095158205321 242.13877096360193,419.0095158205321 242.13877096360193,419.0095158205321 242.8190430592055,419.0095158205321 242.8190430592055,418.3292437249285 242.8190430592055,418.3292437249285 242.8190430592055,418.3292437249285 242.8190430592055,418.3292437249285 242.8190430592055,418.3292437249285 243.4993151548091,418.3292437249285 243.4993151548091,418.3292437249285 243.4993151548091,418.3292437249285 244.17958725041268,418.3292437249285 244.17958725041268,418.3292437249285 244.17958725041268,418.3292437249285 244.85985934601626,418.3292437249285 244.85985934601626,418.3292437249285 245.54013144161985,418.3292437249285 245.54013144161985,417.64897162932493 245.54013144161985,417.64897162932493 246.22040353722335,417.64897162932493 246.22040353722335,417.64897162932493 246.90067563282693,417.64897162932493 246.90067563282693,417.64897162932493 247.58094772843052,417.64897162932493 247.58094772843052,417.64897162932493 248.2612198240341,416.96869953372135 248.2612198240341,416.96869953372135 248.94149191963768,416.96869953372135 249.62176401524127,416.96869953372135 250.30203611084485,416.96869953372135 250.98230820644844,416.96869953372135 251.66258030205202,416.96869953372135 253.02312449325913,416.2884274381178 253.70339658886272,416.2884274381178 254.3836686844663,416.2884274381178 255.06394078006988,416.2884274381178 257.7850291624842,416.2884274381178 259.14557335369136,416.2884274381178 261.18638964050206,416.2884274381178 263.22720592731287,416.2884274381178 265.9482943097271,416.2884274381178 268.6693826921414,416.2884274381178 271.39047107455576,416.2884274381178 274.7918315525736,416.96869953372135 278.1931920305915,416.96869953372135 282.274824604213,418.3292437249285 " style="color: rgb(0, 0, 0);"/><polyline fill="none" stroke="#ffffff" stroke-width="8" stroke-linejoin="round" stroke-dashoffset="" fill-rule="nonzero" marker-start="" marker-mid="" marker-end="" id="svg_47" points="259.82584544929495,414.9278832469107 259.14557335369136,414.9278832469107 259.14557335369136,414.9278832469107 259.14557335369136,414.9278832469107 258.4653012580878,414.9278832469107 257.7850291624842,414.9278832469107 256.4244849712771,414.9278832469107 255.74421287567353,414.9278832469107 255.06394078006994,414.9278832469107 254.38366868446636,414.9278832469107 253.70339658886277,414.9278832469107 253.0231244932592,414.9278832469107 251.66258030205196,414.9278832469107 250.30203611084488,414.9278832469107 249.6217640152413,414.9278832469107 248.26121982403413,414.9278832469107 247.58094772843054,414.9278832469107 246.22040353722338,414.9278832469107 246.22040353722338,414.9278832469107 244.8598593460162,414.9278832469107 244.8598593460162,414.9278832469107 244.8598593460162,414.9278832469107 244.17958725041268,414.9278832469107 243.4993151548091,415.60815534251424 243.4993151548091,415.60815534251424 243.4993151548091,415.60815534251424 243.4993151548091,415.60815534251424 243.4993151548091,415.60815534251424 243.4993151548091,415.60815534251424 243.4993151548091,416.2884274381178 244.17958725041268,416.2884274381178 244.8598593460162,416.9686995337214 246.22040353722338,416.9686995337214 246.90067563282696,416.9686995337214 247.58094772843054,416.9686995337214 248.26121982403413,416.9686995337214 248.9414919196377,416.9686995337214 249.6217640152413,416.9686995337214 250.30203611084488,416.9686995337214 250.98230820644838,416.9686995337214 251.66258030205196,416.9686995337214 252.34285239765555,416.9686995337214 253.70339658886277,416.9686995337214 253.70339658886277,416.9686995337214 254.38366868446636,416.9686995337214 254.38366868446636,416.9686995337214 255.06394078006994,416.9686995337214 255.06394078006994,416.9686995337214 255.06394078006994,416.9686995337214 255.74421287567353,416.9686995337214 255.74421287567353,416.9686995337214 255.74421287567353,416.9686995337214 255.74421287567353,416.9686995337214 256.4244849712771,416.9686995337214 256.4244849712771,416.9686995337214 256.4244849712771,416.9686995337214 256.4244849712771,416.9686995337214 257.1047570668806,416.9686995337214 257.1047570668806,416.2884274381178 257.1047570668806,416.2884274381178 257.1047570668806,416.2884274381178 257.7850291624842,415.60815534251424 259.82584544929495,414.2476111513071 262.5469338317092,412.2067948644964 266.62856640533073,409.48570648208204 270.0299268833486,408.12516229087487 " style="color: rgb(0, 0, 0);"/></g>
</svg>