<?xml version="1.0" encoding="iso-8859-1"?>
<!-- Generator: Adobe Illustrator 19.0.0, SVG Export Plug-In . SVG Version: 6.00 Build 0)  -->
<svg xmlns="http://www.w3.org/2000/svg" xmlns:xlink="http://www.w3.org/1999/xlink" version="1.1" id="Capa_1" x="0px" y="0px" viewBox="0 0 480 480" style="enable-background:new 0 0 480 480;" xml:space="preserve" width="512px" height="512px">
<g>
	<g>
		<path d="M176,25.572c-35.288,0-64,39.48-64,88s28.712,88,64,88c35.288,0,64-39.48,64-88S211.288,25.572,176,25.572z M176,185.572    c-26.472,0-48-32.304-48-72s21.528-72,48-72s48,32.304,48,72S202.472,185.572,176,185.572z" fill="#767676"/>
	</g>
</g>
<g>
	<g>
		<path d="M304,25.572c-35.288,0-64,39.48-64,88s28.712,88,64,88c35.288,0,64-39.48,64-88S339.288,25.572,304,25.572z M304,185.572    c-26.472,0-48-32.304-48-72s21.528-72,48-72s48,32.304,48,72S330.472,185.572,304,185.572z" fill="#767676"/>
	</g>
</g>
<g>
	<g>
		<path d="M56,121.572c-31.4,0-56,38.656-56,88c0,47.392,39.584,88,72,88c35.248,0,40-44.488,40-88    C112,160.228,87.4,121.572,56,121.572z M72,281.572c-22.12,0-56-32.256-56-72c0-39.024,18.32-72,40-72s40,32.976,40,72    C96,259.364,88.6,281.572,72,281.572z" fill="#767676"/>
	</g>
</g>
<g>
	<g>
		<path d="M424,121.572c-31.4,0-56,38.656-56,88c0,43.512,4.752,88,40,88c32.416,0,72-40.608,72-88    C480,160.228,455.4,121.572,424,121.572z M408,281.572c-16.6,0-24-22.208-24-72c0-39.024,18.32-72,40-72s40,32.976,40,72    C464,249.316,430.12,281.572,408,281.572z" fill="#767676"/>
	</g>
</g>
<g>
	<g>
		<path d="M240,201.572c-77.6,0-136,88.048-136,145.144c0,56.928,31.488,96.096,86.4,107.448c9.6,2.024,17.944-7.744,32.048-25.04    c5.21-6.958,11.088-13.389,17.552-19.2c6.464,5.811,12.342,12.242,17.552,19.2c12.912,15.824,21.072,25.288,29.6,25.288    c0.806-0.001,1.61-0.084,2.4-0.248C344.512,442.812,376,403.644,376,346.716C376,289.62,317.6,201.572,240,201.572z     M287.632,438.228c-6.55-5.762-12.476-12.198-17.68-19.2c-13.24-16.264-21.152-25.456-29.952-25.456s-16.712,9.192-29.952,25.44    c-5.204,7.002-11.13,13.438-17.68,19.2C146.352,428.22,120,394.932,120,346.716c0-51,53.76-129.144,120-129.144    s120,78.144,120,129.144C360,394.932,333.648,428.22,287.632,438.228z" fill="#767676"/>
	</g>
</g>
<g>
	<g>
		<path d="M240,233.572c-56.168,0-103.112,67.672-104,111.84c-0.089,4.417,3.419,8.071,7.837,8.16c0.001,0,0.002,0,0.003,0H144    c4.357,0.001,7.913-3.484,8-7.84c0.752-37.096,41.32-96.16,88-96.16c4.418,0,8-3.582,8-8S244.418,233.572,240,233.572z" fill="#767676"/>
	</g>
</g>
<g>
</g>
<g>
</g>
<g>
</g>
<g>
</g>
<g>
</g>
<g>
</g>
<g>
</g>
<g>
</g>
<g>
</g>
<g>
</g>
<g>
</g>
<g>
</g>
<g>
</g>
<g>
</g>
<g>
</g>
</svg>
